<svg xmlns="http://www.w3.org/2000/svg" width="767" height="13" fill="none" xmlns:v="https://vecta.io/nano"><style><![CDATA[.B{opacity:.4}.C{opacity:.8}]]></style><g clip-path="url(#A)" fill="#101010"><use href="#B" class="C"/><path d="M5 13h1V8H5z" class="B"/><use href="#C" class="B"/><path d="M12 13h1V8h-1zm35 0h1V8h-1zm-28 0h1V8h-1zm35 0h1V8h-1zm-28 0h1V8h-1zm35 0h1V8h-1z" class="B"/><path d="M33 13h1V6h-1zm105 0h1V6h-1z" class="C"/><path d="M75 13h1V8h-1zm35 0h1V8h-1zm-28 0h1V8h-1zm35 0h1V8h-1zm-28 0h1V8h-1zm35 0h1V8h-1zm-28 0h1V8h-1zm35 0h1V8h-1z" class="B"/><path d="M103 13h1V6h-1zm175 0h1V6h-1z" class="C"/><path d="M215 13h1V8h-1zm35 0h1V8h-1zm-28 0h1V8h-1zm35 0h1V8h-1zm-28 0h1V8h-1zm35 0h1V8h-1zm-28 0h1V8h-1zm35 0h1V8h-1z" class="B"/><path d="M243 13h1V6h-1zm175 0h1V6h-1z" class="C"/><path d="M355 13h1V8h-1zm35 0h1V8h-1zm-28 0h1V8h-1zm35 0h1V8h-1zm-28 0h1V8h-1zm35 0h1V8h-1zm-28 0h1V8h-1zm35 0h1V8h-1z" class="B"/><path d="M383 13h1V0h-1v13zm175 0h1V6h-1z" class="C"/><path d="M495 13h1V8h-1zm35 0h1V8h-1zm-28 0h1V8h-1zm35 0h1V8h-1zm-28 0h1V8h-1zm35 0h1V8h-1zm-28 0h1V8h-1zm35 0h1V8h-1z" class="B"/><path d="M523 13h1V6h-1zm175 0h1V6h-1z" class="C"/><path d="M635 13h1V8h-1zm35 0h1V8h-1zm-28 0h1V8h-1zm35 0h1V8h-1zm-28 0h1V8h-1zm35 0h1V8h-1zm-28 0h1V8h-1zm35 0h1V8h-1z" class="B"/><path d="M663 13h1V6h-1zm-455 0h1V6h-1z" class="C"/><path d="M145 13h1V8h-1zm35 0h1V8h-1zm-28 0h1V8h-1zm35 0h1V8h-1zm-28 0h1V8h-1zm35 0h1V8h-1zm-28 0h1V8h-1zm35 0h1V8h-1z" class="B"/><path d="M173 13h1V6h-1zm175 0h1V6h-1z" class="C"/><path d="M285 13h1V8h-1zm35 0h1V8h-1zm-28 0h1V8h-1zm35 0h1V8h-1zm-28 0h1V8h-1zm35 0h1V8h-1zm-28 0h1V8h-1zm35 0h1V8h-1z" class="B"/><path d="M313 13h1V6h-1zm175 0h1V6h-1z" class="C"/><path d="M425 13h1V8h-1zm35 0h1V8h-1zm-28 0h1V8h-1zm35 0h1V8h-1zm-28 0h1V8h-1zm35 0h1V8h-1zm-28 0h1V8h-1zm35 0h1V8h-1z" class="B"/><path d="M453 13h1V6h-1zm175 0h1V6h-1z" class="C"/><path d="M565 13h1V8h-1zm35 0h1V8h-1zm-28 0h1V8h-1zm35 0h1V8h-1zm-28 0h1V8h-1zm35 0h1V8h-1zm-28 0h1V8h-1zm35 0h1V8h-1z" class="B"/><path d="M593 13h1V6h-1z" class="C"/><path d="M705 13h1V8h-1zm35 0h1V8h-1zm-28 0h1V8h-1zm35 0h1V8h-1zm-28 0h1V8h-1zm35 0h1V8h-1zm-28 0h1V8h-1zm35 0h1V8h-1z" class="B"/><path d="M733 13h1V6h-1z" class="C"/></g><defs><clipPath id="A"><path fill="#fff" d="M0 0h767v13H0z"/></clipPath><path id="B" d="M68 13h1V6h-1z"/><path id="C" d="M40 13h1V8h-1z"/></defs></svg>