<svg xmlns="http://www.w3.org/2000/svg" width="991" height="18" fill="none" xmlns:v="https://vecta.io/nano"><style><![CDATA[.B{opacity:.8}.C{opacity:.4}]]></style><g clip-path="url(#A)" fill="#fcfaf5"><use href="#B" class="B"/><use href="#C" class="C"/><path d="M19 18h1v-8h-1zm7 0h1v-8h-1zm7 0h1v-8h-1z" class="C"/><path d="M5 18h1V7H5zm105 0h1V6h-1z" class="B"/><path d="M47 18h1v-8h-1zm35 0h1v-8h-1zm-28 0h1v-8h-1zm35 0h1v-8h-1zm-28 0h1v-8h-1zm35 0h1v-8h-1zm-28 0h1v-8h-1zm35 0h1v-8h-1z" class="C"/><use href="#D" class="B"/><path d="M180 18h1V6h-1z" class="B"/><path d="M117 18h1v-8h-1zm35 0h1v-8h-1zm-28 0h1v-8h-1zm35 0h1v-8h-1zm-28 0h1v-8h-1zm35 0h1v-8h-1zm-28 0h1v-8h-1zm35 0h1v-8h-1z" class="C"/><path d="M145 18h1V7h-1zm105 0h1V6h-1z" class="B"/><path d="M187 18h1v-8h-1zm35 0h1v-8h-1zm-28 0h1v-8h-1zm35 0h1v-8h-1zm-28 0h1v-8h-1zm35 0h1v-8h-1zm-28 0h1v-8h-1zm35 0h1v-8h-1z" class="C"/><path d="M215 18h1V7h-1zm175 0h1V6h-1z" class="B"/><path d="M327 18h1v-8h-1zm35 0h1v-8h-1zm-28 0h1v-8h-1zm35 0h1v-8h-1zm-28 0h1v-8h-1zm35 0h1v-8h-1zm-28 0h1v-8h-1zm35 0h1v-8h-1z" class="C"/><path d="M355 18h1V7h-1zm175 0h1V6h-1z" class="B"/><path d="M467 18h1v-8h-1zm35 0h1v-8h-1zm-28 0h1v-8h-1zm35 0h1v-8h-1zm-28 0h1v-8h-1zm35 0h1v-8h-1zm-28 0h1v-8h-1zm35 0h1v-8h-1z" class="C"/><path d="M495 18h1V-4h-1v22zm175 0h1V6h-1z" class="B"/><path d="M607 18h1v-8h-1zm35 0h1v-8h-1zm-28 0h1v-8h-1zm35 0h1v-8h-1zm-28 0h1v-8h-1zm35 0h1v-8h-1zm-28 0h1v-8h-1zm35 0h1v-8h-1z" class="C"/><path d="M635 18h1V7h-1zm175 0h1V6h-1z" class="B"/><path d="M747 18h1v-8h-1zm35 0h1v-8h-1zm-28 0h1v-8h-1zm35 0h1v-8h-1zm-28 0h1v-8h-1zm35 0h1v-8h-1zm-28 0h1v-8h-1zm35 0h1v-8h-1z" class="C"/><path d="M775 18h1V7h-1zm175 0h1V6h-1z" class="B"/><path d="M887 18h1v-8h-1zm35 0h1v-8h-1zm-28 0h1v-8h-1zm35 0h1v-8h-1zm-28 0h1v-8h-1zm35 0h1v-8h-1zm-28 0h1v-8h-1zm35 0h1v-8h-1z" class="C"/><path d="M915 18h1V7h-1zm-595 0h1V6h-1z" class="B"/><path d="M257 18h1v-8h-1zm35 0h1v-8h-1zm-28 0h1v-8h-1zm35 0h1v-8h-1zm-28 0h1v-8h-1zm35 0h1v-8h-1zm-28 0h1v-8h-1zm35 0h1v-8h-1z" class="C"/><path d="M285 18h1V7h-1zm175 0h1V6h-1z" class="B"/><path d="M397 18h1v-8h-1zm35 0h1v-8h-1zm-28 0h1v-8h-1zm35 0h1v-8h-1zm-28 0h1v-8h-1zm35 0h1v-8h-1zm-28 0h1v-8h-1zm35 0h1v-8h-1z" class="C"/><path d="M425 18h1V7h-1zm175 0h1V6h-1z" class="B"/><path d="M537 18h1v-8h-1zm35 0h1v-8h-1zm-28 0h1v-8h-1zm35 0h1v-8h-1zm-28 0h1v-8h-1zm35 0h1v-8h-1zm-28 0h1v-8h-1zm35 0h1v-8h-1z" class="C"/><path d="M565 18h1V7h-1zm175 0h1V6h-1z" class="B"/><path d="M677 18h1v-8h-1zm35 0h1v-8h-1zm-28 0h1v-8h-1zm35 0h1v-8h-1zm-28 0h1v-8h-1zm35 0h1v-8h-1zm-28 0h1v-8h-1zm35 0h1v-8h-1z" class="C"/><path d="M705 18h1V7h-1zm175 0h1V6h-1z" class="B"/><path d="M817 18h1v-8h-1zm35 0h1v-8h-1zm-28 0h1v-8h-1zm35 0h1v-8h-1zm-28 0h1v-8h-1zm35 0h1v-8h-1zm-28 0h1v-8h-1zm35 0h1v-8h-1z" class="C"/><path d="M845 18h1V7h-1z" class="B"/><path d="M957 18h1v-8h-1zm7 0h1v-8h-1zm7 0h1v-8h-1zm7 0h1v-8h-1z" class="C"/><path d="M985 18h1V7h-1z" class="B"/></g><defs><clipPath id="A"><path fill="#fff" d="M0 0h991v18H0z"/></clipPath><path id="B" d="M40 18h1V6h-1z"/><path id="C" d="M12 18h1v-8h-1z"/><path id="D" d="M75 18h1V7h-1z"/></defs></svg>