<svg xmlns="http://www.w3.org/2000/svg" width="991" height="21" fill="none" xmlns:v="https://vecta.io/nano"><style><![CDATA[.B{opacity:.8}.C{opacity:.4}]]></style><g clip-path="url(#A)" fill="#fcfaf5"><use href="#B" class="B"/><use href="#C" class="C"/><path d="M19 0h1v8h-1zm7 0h1v8h-1zm7 0h1v8h-1z" class="C"/><path d="M5 0h1v11H5zm105 0h1v12h-1z" class="B"/><path d="M47 0h1v8h-1zm35 0h1v8h-1zM54 0h1v8h-1zm35 0h1v8h-1zM61 0h1v8h-1zm35 0h1v8h-1zM68 0h1v8h-1zm35 0h1v8h-1z" class="C"/><use href="#D" class="B"/><path d="M180 0h1v12h-1z" class="B"/><path d="M117 0h1v8h-1zm35 0h1v8h-1zm-28 0h1v8h-1zm35 0h1v8h-1zm-28 0h1v8h-1zm35 0h1v8h-1zm-28 0h1v8h-1zm35 0h1v8h-1z" class="C"/><path d="M145 0h1v11h-1zm105 0h1v12h-1z" class="B"/><path d="M187 0h1v8h-1zm35 0h1v8h-1zm-28 0h1v8h-1zm35 0h1v8h-1zm-28 0h1v8h-1zm35 0h1v8h-1zm-28 0h1v8h-1zm35 0h1v8h-1z" class="C"/><path d="M215 0h1v11h-1zm175 0h1v12h-1z" class="B"/><path d="M327 0h1v8h-1zm35 0h1v8h-1zm-28 0h1v8h-1zm35 0h1v8h-1zm-28 0h1v8h-1zm35 0h1v8h-1zm-28 0h1v8h-1zm35 0h1v8h-1z" class="C"/><path d="M355 0h1v11h-1zm175 0h1v12h-1z" class="B"/><path d="M467 0h1v8h-1zm35 0h1v8h-1zm-28 0h1v8h-1zm35 0h1v8h-1zm-28 0h1v8h-1zm35 0h1v8h-1zm-28 0h1v8h-1zm35 0h1v8h-1z" class="C"/><path d="M495 0h1v22h-1V0zm175 0h1v12h-1z" class="B"/><path d="M607 0h1v8h-1zm35 0h1v8h-1zm-28 0h1v8h-1zm35 0h1v8h-1zm-28 0h1v8h-1zm35 0h1v8h-1zm-28 0h1v8h-1zm35 0h1v8h-1z" class="C"/><path d="M635 0h1v11h-1zm175 0h1v12h-1z" class="B"/><path d="M747 0h1v8h-1zm35 0h1v8h-1zm-28 0h1v8h-1zm35 0h1v8h-1zm-28 0h1v8h-1zm35 0h1v8h-1zm-28 0h1v8h-1zm35 0h1v8h-1z" class="C"/><path d="M775 0h1v11h-1zm175 0h1v12h-1z" class="B"/><path d="M887 0h1v8h-1zm35 0h1v8h-1zm-28 0h1v8h-1zm35 0h1v8h-1zm-28 0h1v8h-1zm35 0h1v8h-1zm-28 0h1v8h-1zm35 0h1v8h-1z" class="C"/><path d="M915 0h1v11h-1zM320 0h1v12h-1z" class="B"/><path d="M257 0h1v8h-1zm35 0h1v8h-1zm-28 0h1v8h-1zm35 0h1v8h-1zm-28 0h1v8h-1zm35 0h1v8h-1zm-28 0h1v8h-1zm35 0h1v8h-1z" class="C"/><path d="M285 0h1v11h-1zm175 0h1v12h-1z" class="B"/><path d="M397 0h1v8h-1zm35 0h1v8h-1zm-28 0h1v8h-1zm35 0h1v8h-1zm-28 0h1v8h-1zm35 0h1v8h-1zm-28 0h1v8h-1zm35 0h1v8h-1z" class="C"/><path d="M425 0h1v11h-1zm175 0h1v12h-1z" class="B"/><path d="M537 0h1v8h-1zm35 0h1v8h-1zm-28 0h1v8h-1zm35 0h1v8h-1zm-28 0h1v8h-1zm35 0h1v8h-1zm-28 0h1v8h-1zm35 0h1v8h-1z" class="C"/><path d="M565 0h1v11h-1zm175 0h1v12h-1z" class="B"/><path d="M677 0h1v8h-1zm35 0h1v8h-1zm-28 0h1v8h-1zm35 0h1v8h-1zm-28 0h1v8h-1zm35 0h1v8h-1zm-28 0h1v8h-1zm35 0h1v8h-1z" class="C"/><path d="M705 0h1v11h-1zm175 0h1v12h-1z" class="B"/><path d="M817 0h1v8h-1zm35 0h1v8h-1zm-28 0h1v8h-1zm35 0h1v8h-1zm-28 0h1v8h-1zm35 0h1v8h-1zm-28 0h1v8h-1zm35 0h1v8h-1z" class="C"/><path d="M845 0h1v11h-1z" class="B"/><path d="M957 0h1v8h-1zm7 0h1v8h-1zm7 0h1v8h-1zm7 0h1v8h-1z" class="C"/><path d="M985 0h1v11h-1z" class="B"/></g><defs><clipPath id="A"><path fill="#fff" d="M0 0h991v21H0z"/></clipPath><path id="B" d="M40 0h1v12h-1z"/><path id="C" d="M12 0h1v8h-1z"/><path id="D" d="M75 0h1v11h-1z"/></defs></svg>