<svg xmlns="http://www.w3.org/2000/svg" width="1921" height="22" fill="none" xmlns:v="https://vecta.io/nano"><style><![CDATA[.B{opacity:.8}.C{opacity:.4}]]></style><g clip-path="url(#A)" fill="#fcfaf5"><use href="#B" class="B"/><use href="#C" class="C"/><path d="M337 22h1v-8h-1zm-28 0h1v-8h-1zm35 0h1v-8h-1zm-28 0h1v-8h-1zm35 0h1v-8h-1zm-28 0h1v-8h-1zm35 0h1v-8h-1z" class="C"/><use href="#D" class="B"/><path d="M435 22h1V10h-1z" class="B"/><path d="M372 22h1v-8h-1zm35 0h1v-8h-1zm-28 0h1v-8h-1zm35 0h1v-8h-1zm-28 0h1v-8h-1zm35 0h1v-8h-1zm-28 0h1v-8h-1zm35 0h1v-8h-1z" class="C"/><path d="M400 22h1V11h-1zm105 0h1V10h-1z" class="B"/><path d="M442 22h1v-8h-1zm35 0h1v-8h-1zm-28 0h1v-8h-1zm35 0h1v-8h-1zm-28 0h1v-8h-1zm35 0h1v-8h-1zm-28 0h1v-8h-1zm35 0h1v-8h-1z" class="C"/><path d="M470 22h1V11h-1zM15 22h1V10h-1z" class="B"/><path d="M1 22h1v-8H1zm7 0h1v-8H8z" class="C"/><path d="M575 22h1V10h-1z" class="B"/><path d="M512 22h1v-8h-1zm35 0h1v-8h-1zm-28 0h1v-8h-1zm35 0h1v-8h-1zm-28 0h1v-8h-1zm35 0h1v-8h-1zm-28 0h1v-8h-1zm35 0h1v-8h-1z" class="C"/><path d="M540 22h1V11h-1zM85 22h1V10h-1z" class="B"/><path d="M22 22h1v-8h-1zm35 0h1v-8h-1zm-28 0h1v-8h-1zm35 0h1v-8h-1zm-28 0h1v-8h-1zm35 0h1v-8h-1zm-28 0h1v-8h-1zm35 0h1v-8h-1z" class="C"/><path d="M50 22h1V11h-1zm595 0h1V10h-1z" class="B"/><path d="M582 22h1v-8h-1zm35 0h1v-8h-1zm-28 0h1v-8h-1zm35 0h1v-8h-1zm-28 0h1v-8h-1zm35 0h1v-8h-1zm-28 0h1v-8h-1zm35 0h1v-8h-1z" class="C"/><path d="M610 22h1V11h-1zm-455 0h1V10h-1z" class="B"/><path d="M92 22h1v-8h-1zm35 0h1v-8h-1zm-28 0h1v-8h-1zm35 0h1v-8h-1zm-28 0h1v-8h-1zm35 0h1v-8h-1zm-28 0h1v-8h-1zm35 0h1v-8h-1z" class="C"/><path d="M120 22h1V11h-1zm595 0h1V10h-1z" class="B"/><path d="M652 22h1v-8h-1zm35 0h1v-8h-1zm-28 0h1v-8h-1zm35 0h1v-8h-1zm-28 0h1v-8h-1zm35 0h1v-8h-1zm-28 0h1v-8h-1zm35 0h1v-8h-1z" class="C"/><path d="M680 22h1V11h-1zm-455 0h1V10h-1z" class="B"/><path d="M162 22h1v-8h-1zm35 0h1v-8h-1zm-28 0h1v-8h-1zm35 0h1v-8h-1zm-28 0h1v-8h-1zm35 0h1v-8h-1zm-28 0h1v-8h-1zm35 0h1v-8h-1z" class="C"/><path d="M190 22h1V11h-1zm665 0h1V10h-1z" class="B"/><path d="M792 22h1v-8h-1zm35 0h1v-8h-1zm-28 0h1v-8h-1zm35 0h1v-8h-1zm-28 0h1v-8h-1zm35 0h1v-8h-1zm-28 0h1v-8h-1zm35 0h1v-8h-1z" class="C"/><path d="M820 22h1V11h-1zm175 0h1V10h-1z" class="B"/><path d="M932 22h1v-8h-1zm35 0h1v-8h-1zm-28 0h1v-8h-1zm35 0h1v-8h-1zm-28 0h1v-8h-1zm35 0h1v-8h-1zm-28 0h1v-8h-1zm35 0h1v-8h-1z" class="C"/><path d="M960 22h1V0h-1v22zm175 0h1V10h-1z" class="B"/><path d="M1072 22h1v-8h-1zm35 0h1v-8h-1zm-28 0h1v-8h-1zm35 0h1v-8h-1zm-28 0h1v-8h-1zm35 0h1v-8h-1zm-28 0h1v-8h-1zm35 0h1v-8h-1z" class="C"/><path d="M1100 22h1V11h-1zm175 0h1V10h-1z" class="B"/><path d="M1212 22h1v-8h-1zm35 0h1v-8h-1zm-28 0h1v-8h-1zm35 0h1v-8h-1zm-28 0h1v-8h-1zm35 0h1v-8h-1zm-28 0h1v-8h-1zm35 0h1v-8h-1z" class="C"/><path d="M1240 22h1V11h-1zm175 0h1V10h-1z" class="B"/><path d="M1352 22h1v-8h-1zm35 0h1v-8h-1zm-28 0h1v-8h-1zm35 0h1v-8h-1zm-28 0h1v-8h-1zm35 0h1v-8h-1zm-28 0h1v-8h-1zm35 0h1v-8h-1z" class="C"/><path d="M1380 22h1V11h-1zm175 0h1V10h-1z" class="B"/><path d="M1492 22h1v-8h-1zm35 0h1v-8h-1zm-28 0h1v-8h-1zm35 0h1v-8h-1zm-28 0h1v-8h-1zm35 0h1v-8h-1zm-28 0h1v-8h-1zm35 0h1v-8h-1z" class="C"/><path d="M1520 22h1V11h-1zm385 0h1V10h-1z" class="B"/><path d="M1842 22h1v-8h-1zm35 0h1v-8h-1zm-28 0h1v-8h-1zm35 0h1v-8h-1zm-28 0h1v-8h-1zm35 0h1v-8h-1zm-28 0h1v-8h-1zm35 0h1v-8h-1z" class="C"/><path d="M1870 22h1V11h-1zm-175 0h1V10h-1z" class="B"/><path d="M1632 22h1v-8h-1zm35 0h1v-8h-1zm-28 0h1v-8h-1zm35 0h1v-8h-1zm-28 0h1v-8h-1zm35 0h1v-8h-1zm-28 0h1v-8h-1zm35 0h1v-8h-1z" class="C"/><path d="M1660 22h1V11h-1zm105 0h1V10h-1z" class="B"/><path d="M1702 22h1v-8h-1zm35 0h1v-8h-1zm-28 0h1v-8h-1zm35 0h1v-8h-1zm-28 0h1v-8h-1zm35 0h1v-8h-1zm-28 0h1v-8h-1zm35 0h1v-8h-1z" class="C"/><path d="M1730 22h1V11h-1zm-945 0h1V10h-1z" class="B"/><path d="M722 22h1v-8h-1zm35 0h1v-8h-1zm-28 0h1v-8h-1zm35 0h1v-8h-1zm-28 0h1v-8h-1zm35 0h1v-8h-1zm-28 0h1v-8h-1zm35 0h1v-8h-1z" class="C"/><path d="M750 22h1V11h-1zm-455 0h1V10h-1z" class="B"/><path d="M232 22h1v-8h-1zm35 0h1v-8h-1zm-28 0h1v-8h-1zm35 0h1v-8h-1zm-28 0h1v-8h-1zm35 0h1v-8h-1zm-28 0h1v-8h-1zm35 0h1v-8h-1z" class="C"/><path d="M260 22h1V11h-1zm665 0h1V10h-1z" class="B"/><path d="M862 22h1v-8h-1zm35 0h1v-8h-1zm-28 0h1v-8h-1zm35 0h1v-8h-1zm-28 0h1v-8h-1zm35 0h1v-8h-1zm-28 0h1v-8h-1zm35 0h1v-8h-1z" class="C"/><path d="M890 22h1V11h-1zm175 0h1V10h-1z" class="B"/><path d="M1002 22h1v-8h-1zm35 0h1v-8h-1zm-28 0h1v-8h-1zm35 0h1v-8h-1zm-28 0h1v-8h-1zm35 0h1v-8h-1zm-28 0h1v-8h-1zm35 0h1v-8h-1z" class="C"/><path d="M1030 22h1V11h-1zm175 0h1V10h-1z" class="B"/><path d="M1142 22h1v-8h-1zm35 0h1v-8h-1zm-28 0h1v-8h-1zm35 0h1v-8h-1zm-28 0h1v-8h-1zm35 0h1v-8h-1zm-28 0h1v-8h-1zm35 0h1v-8h-1z" class="C"/><path d="M1170 22h1V11h-1zm175 0h1V10h-1z" class="B"/><path d="M1282 22h1v-8h-1zm35 0h1v-8h-1zm-28 0h1v-8h-1zm35 0h1v-8h-1zm-28 0h1v-8h-1zm35 0h1v-8h-1zm-28 0h1v-8h-1zm35 0h1v-8h-1z" class="C"/><path d="M1310 22h1V11h-1zm175 0h1V10h-1z" class="B"/><path d="M1422 22h1v-8h-1zm35 0h1v-8h-1zm-28 0h1v-8h-1zm35 0h1v-8h-1zm-28 0h1v-8h-1zm35 0h1v-8h-1zm-28 0h1v-8h-1zm35 0h1v-8h-1z" class="C"/><path d="M1450 22h1V11h-1zm385 0h1V10h-1z" class="B"/><path d="M1772 22h1v-8h-1zm35 0h1v-8h-1zm-28 0h1v-8h-1zm35 0h1v-8h-1zm-28 0h1v-8h-1zm35 0h1v-8h-1zm-28 0h1v-8h-1zm35 0h1v-8h-1z" class="C"/><path d="M1800 22h1V11h-1zm-175 0h1V10h-1z" class="B"/><path d="M1562 22h1v-8h-1zm35 0h1v-8h-1zm-28 0h1v-8h-1zm35 0h1v-8h-1zm-28 0h1v-8h-1zm35 0h1v-8h-1zm-28 0h1v-8h-1zm35 0h1v-8h-1z" class="C"/><path d="M1590 22h1V11h-1z" class="B"/><path d="M1912 22h1v-8h-1zm7 0h1v-8h-1z" class="C"/></g><defs><clipPath id="A"><path fill="#fff" d="M0 0h1921v22H0z"/></clipPath><path id="B" d="M365 22h1V10h-1z"/><path id="C" d="M302 22h1v-8h-1z"/><path id="D" d="M330 22h1V11h-1z"/></defs></svg>