<svg xmlns="http://www.w3.org/2000/svg" width="767" height="13" fill="none" xmlns:v="https://vecta.io/nano"><style><![CDATA[.B{opacity:.4}.C{opacity:.8}]]></style><g clip-path="url(#A)" fill="#fcfaf5"><use href="#B" class="C"/><path d="M5 0h1v5H5z" class="B"/><use href="#C" class="B"/><path d="M12 0h1v5h-1zm35 0h1v5h-1zM19 0h1v5h-1zm35 0h1v5h-1zM26 0h1v5h-1zm35 0h1v5h-1z" class="B"/><path d="M33 0h1v7h-1zm105 0h1v7h-1z" class="C"/><path d="M75 0h1v5h-1zm35 0h1v5h-1zM82 0h1v5h-1zm35 0h1v5h-1zM89 0h1v5h-1zm35 0h1v5h-1zM96 0h1v5h-1zm35 0h1v5h-1z" class="B"/><path d="M103 0h1v7h-1zm175 0h1v7h-1z" class="C"/><path d="M215 0h1v5h-1zm35 0h1v5h-1zm-28 0h1v5h-1zm35 0h1v5h-1zm-28 0h1v5h-1zm35 0h1v5h-1zm-28 0h1v5h-1zm35 0h1v5h-1z" class="B"/><path d="M243 0h1v7h-1zm175 0h1v7h-1z" class="C"/><path d="M355 0h1v5h-1zm35 0h1v5h-1zm-28 0h1v5h-1zm35 0h1v5h-1zm-28 0h1v5h-1zm35 0h1v5h-1zm-28 0h1v5h-1zm35 0h1v5h-1z" class="B"/><path d="M383 0h1v13h-1V0zm175 0h1v7h-1z" class="C"/><path d="M495 0h1v5h-1zm35 0h1v5h-1zm-28 0h1v5h-1zm35 0h1v5h-1zm-28 0h1v5h-1zm35 0h1v5h-1zm-28 0h1v5h-1zm35 0h1v5h-1z" class="B"/><path d="M523 0h1v7h-1zm175 0h1v7h-1z" class="C"/><path d="M635 0h1v5h-1zm35 0h1v5h-1zm-28 0h1v5h-1zm35 0h1v5h-1zm-28 0h1v5h-1zm35 0h1v5h-1zm-28 0h1v5h-1zm35 0h1v5h-1z" class="B"/><path d="M663 0h1v7h-1zM208 0h1v7h-1z" class="C"/><path d="M145 0h1v5h-1zm35 0h1v5h-1zm-28 0h1v5h-1zm35 0h1v5h-1zm-28 0h1v5h-1zm35 0h1v5h-1zm-28 0h1v5h-1zm35 0h1v5h-1z" class="B"/><path d="M173 0h1v7h-1zm175 0h1v7h-1z" class="C"/><path d="M285 0h1v5h-1zm35 0h1v5h-1zm-28 0h1v5h-1zm35 0h1v5h-1zm-28 0h1v5h-1zm35 0h1v5h-1zm-28 0h1v5h-1zm35 0h1v5h-1z" class="B"/><path d="M313 0h1v7h-1zm175 0h1v7h-1z" class="C"/><path d="M425 0h1v5h-1zm35 0h1v5h-1zm-28 0h1v5h-1zm35 0h1v5h-1zm-28 0h1v5h-1zm35 0h1v5h-1zm-28 0h1v5h-1zm35 0h1v5h-1z" class="B"/><path d="M453 0h1v7h-1zm175 0h1v7h-1z" class="C"/><path d="M565 0h1v5h-1zm35 0h1v5h-1zm-28 0h1v5h-1zm35 0h1v5h-1zm-28 0h1v5h-1zm35 0h1v5h-1zm-28 0h1v5h-1zm35 0h1v5h-1z" class="B"/><path d="M593 0h1v7h-1z" class="C"/><path d="M705 0h1v5h-1zm35 0h1v5h-1zm-28 0h1v5h-1zm35 0h1v5h-1zm-28 0h1v5h-1zm35 0h1v5h-1zm-28 0h1v5h-1zm35 0h1v5h-1z" class="B"/><path d="M733 0h1v7h-1z" class="C"/></g><defs><clipPath id="A"><path fill="#fff" d="M0 0h767v13H0z"/></clipPath><path id="B" d="M68 0h1v7h-1z"/><path id="C" d="M40 0h1v5h-1z"/></defs></svg>