<svg xmlns="http://www.w3.org/2000/svg" width="1921" height="22" fill="none" xmlns:v="https://vecta.io/nano"><style><![CDATA[.B{opacity:.8}.C{opacity:.4}]]></style><g clip-path="url(#A)" fill="#101010"><use href="#B" class="B"/><use href="#C" class="C"/><path d="M337 0h1v8h-1zm-28 0h1v8h-1zm35 0h1v8h-1zm-28 0h1v8h-1zm35 0h1v8h-1zm-28 0h1v8h-1zm35 0h1v8h-1z" class="C"/><use href="#D" class="B"/><path d="M435 0h1v12h-1z" class="B"/><path d="M372 0h1v8h-1zm35 0h1v8h-1zm-28 0h1v8h-1zm35 0h1v8h-1zm-28 0h1v8h-1zm35 0h1v8h-1zm-28 0h1v8h-1zm35 0h1v8h-1z" class="C"/><path d="M400 0h1v11h-1zM15 0h1v12h-1z" class="B"/><path d="M1 0h1v8H1zm7 0h1v8H8z" class="C"/><path d="M505 0h1v12h-1z" class="B"/><path d="M442 0h1v8h-1zm35 0h1v8h-1zm-28 0h1v8h-1zm35 0h1v8h-1zm-28 0h1v8h-1zm35 0h1v8h-1zm-28 0h1v8h-1zm35 0h1v8h-1z" class="C"/><path d="M470 0h1v11h-1zM85 0h1v12h-1z" class="B"/><path d="M22 0h1v8h-1zm35 0h1v8h-1zM29 0h1v8h-1zm35 0h1v8h-1zM36 0h1v8h-1zm35 0h1v8h-1zM43 0h1v8h-1zm35 0h1v8h-1z" class="C"/><path d="M50 0h1v11h-1zm525 0h1v12h-1z" class="B"/><path d="M512 0h1v8h-1zm35 0h1v8h-1zm-28 0h1v8h-1zm35 0h1v8h-1zm-28 0h1v8h-1zm35 0h1v8h-1zm-28 0h1v8h-1zm35 0h1v8h-1z" class="C"/><path d="M540 0h1v11h-1zM155 0h1v12h-1z" class="B"/><path d="M92 0h1v8h-1zm35 0h1v8h-1zM99 0h1v8h-1zm35 0h1v8h-1zm-28 0h1v8h-1zm35 0h1v8h-1zm-28 0h1v8h-1zm35 0h1v8h-1z" class="C"/><path d="M120 0h1v11h-1zm525 0h1v12h-1z" class="B"/><path d="M582 0h1v8h-1zm35 0h1v8h-1zm-28 0h1v8h-1zm35 0h1v8h-1zm-28 0h1v8h-1zm35 0h1v8h-1zm-28 0h1v8h-1zm35 0h1v8h-1z" class="C"/><path d="M610 0h1v11h-1zM225 0h1v12h-1z" class="B"/><path d="M162 0h1v8h-1zm35 0h1v8h-1zm-28 0h1v8h-1zm35 0h1v8h-1zm-28 0h1v8h-1zm35 0h1v8h-1zm-28 0h1v8h-1zm35 0h1v8h-1z" class="C"/><path d="M190 0h1v11h-1zm525 0h1v12h-1z" class="B"/><path d="M652 0h1v8h-1zm35 0h1v8h-1zm-28 0h1v8h-1zm35 0h1v8h-1zm-28 0h1v8h-1zm35 0h1v8h-1zm-28 0h1v8h-1zm35 0h1v8h-1z" class="C"/><path d="M680 0h1v11h-1zM295 0h1v12h-1z" class="B"/><path d="M232 0h1v8h-1zm35 0h1v8h-1zm-28 0h1v8h-1zm35 0h1v8h-1zm-28 0h1v8h-1zm35 0h1v8h-1zm-28 0h1v8h-1zm35 0h1v8h-1z" class="C"/><path d="M260 0h1v11h-1zm595 0h1v12h-1z" class="B"/><path d="M792 0h1v8h-1zm35 0h1v8h-1zm-28 0h1v8h-1zm35 0h1v8h-1zm-28 0h1v8h-1zm35 0h1v8h-1zm-28 0h1v8h-1zm35 0h1v8h-1z" class="C"/><path d="M820 0h1v11h-1zm175 0h1v12h-1z" class="B"/><path d="M932 0h1v8h-1zm35 0h1v8h-1zm-28 0h1v8h-1zm35 0h1v8h-1zm-28 0h1v8h-1zm35 0h1v8h-1zm-28 0h1v8h-1zm35 0h1v8h-1z" class="C"/><path d="M960 0h1v22h-1V0zm175 0h1v12h-1z" class="B"/><path d="M1072 0h1v8h-1zm35 0h1v8h-1zm-28 0h1v8h-1zm35 0h1v8h-1zm-28 0h1v8h-1zm35 0h1v8h-1zm-28 0h1v8h-1zm35 0h1v8h-1z" class="C"/><path d="M1100 0h1v11h-1zm175 0h1v12h-1z" class="B"/><path d="M1212 0h1v8h-1zm35 0h1v8h-1zm-28 0h1v8h-1zm35 0h1v8h-1zm-28 0h1v8h-1zm35 0h1v8h-1zm-28 0h1v8h-1zm35 0h1v8h-1z" class="C"/><path d="M1240 0h1v11h-1zm175 0h1v12h-1z" class="B"/><path d="M1352 0h1v8h-1zm35 0h1v8h-1zm-28 0h1v8h-1zm35 0h1v8h-1zm-28 0h1v8h-1zm35 0h1v8h-1zm-28 0h1v8h-1zm35 0h1v8h-1z" class="C"/><path d="M1380 0h1v11h-1zm385 0h1v12h-1z" class="B"/><path d="M1702 0h1v8h-1zm35 0h1v8h-1zm-28 0h1v8h-1zm35 0h1v8h-1zm-28 0h1v8h-1zm35 0h1v8h-1zm-28 0h1v8h-1zm35 0h1v8h-1z" class="C"/><path d="M1730 0h1v11h-1zm-175 0h1v12h-1z" class="B"/><path d="M1492 0h1v8h-1zm35 0h1v8h-1zm-28 0h1v8h-1zm35 0h1v8h-1zm-28 0h1v8h-1zm35 0h1v8h-1zm-28 0h1v8h-1zm35 0h1v8h-1z" class="C"/><path d="M1520 0h1v11h-1zm385 0h1v12h-1z" class="B"/><path d="M1842 0h1v8h-1zm35 0h1v8h-1zm-28 0h1v8h-1zm35 0h1v8h-1zm-28 0h1v8h-1zm35 0h1v8h-1zm-28 0h1v8h-1zm35 0h1v8h-1z" class="C"/><path d="M1870 0h1v11h-1zM785 0h1v12h-1z" class="B"/><path d="M722 0h1v8h-1zm35 0h1v8h-1zm-28 0h1v8h-1zm35 0h1v8h-1zm-28 0h1v8h-1zm35 0h1v8h-1zm-28 0h1v8h-1zm35 0h1v8h-1z" class="C"/><path d="M750 0h1v11h-1zm175 0h1v12h-1z" class="B"/><path d="M862 0h1v8h-1zm35 0h1v8h-1zm-28 0h1v8h-1zm35 0h1v8h-1zm-28 0h1v8h-1zm35 0h1v8h-1zm-28 0h1v8h-1zm35 0h1v8h-1z" class="C"/><path d="M890 0h1v11h-1zm175 0h1v12h-1z" class="B"/><path d="M1002 0h1v8h-1zm35 0h1v8h-1zm-28 0h1v8h-1zm35 0h1v8h-1zm-28 0h1v8h-1zm35 0h1v8h-1zm-28 0h1v8h-1zm35 0h1v8h-1z" class="C"/><path d="M1030 0h1v11h-1zm175 0h1v12h-1z" class="B"/><path d="M1142 0h1v8h-1zm35 0h1v8h-1zm-28 0h1v8h-1zm35 0h1v8h-1zm-28 0h1v8h-1zm35 0h1v8h-1zm-28 0h1v8h-1zm35 0h1v8h-1z" class="C"/><path d="M1170 0h1v11h-1zm175 0h1v12h-1z" class="B"/><path d="M1282 0h1v8h-1zm35 0h1v8h-1zm-28 0h1v8h-1zm35 0h1v8h-1zm-28 0h1v8h-1zm35 0h1v8h-1zm-28 0h1v8h-1zm35 0h1v8h-1z" class="C"/><path d="M1310 0h1v11h-1zm385 0h1v12h-1z" class="B"/><path d="M1632 0h1v8h-1zm35 0h1v8h-1zm-28 0h1v8h-1zm35 0h1v8h-1zm-28 0h1v8h-1zm35 0h1v8h-1zm-28 0h1v8h-1zm35 0h1v8h-1z" class="C"/><path d="M1660 0h1v11h-1zm-175 0h1v12h-1z" class="B"/><path d="M1422 0h1v8h-1zm35 0h1v8h-1zm-28 0h1v8h-1zm35 0h1v8h-1zm-28 0h1v8h-1zm35 0h1v8h-1zm-28 0h1v8h-1zm35 0h1v8h-1z" class="C"/><path d="M1450 0h1v11h-1zm385 0h1v12h-1z" class="B"/><path d="M1772 0h1v8h-1zm35 0h1v8h-1zm-28 0h1v8h-1zm35 0h1v8h-1zm-28 0h1v8h-1zm35 0h1v8h-1zm-28 0h1v8h-1zm35 0h1v8h-1z" class="C"/><path d="M1800 0h1v11h-1zm-175 0h1v12h-1z" class="B"/><path d="M1562 0h1v8h-1zm35 0h1v8h-1zm-28 0h1v8h-1zm35 0h1v8h-1zm-28 0h1v8h-1zm35 0h1v8h-1zm-28 0h1v8h-1zm35 0h1v8h-1z" class="C"/><path d="M1590 0h1v11h-1z" class="B"/><path d="M1912 0h1v8h-1zm7 0h1v8h-1z" class="C"/></g><defs><clipPath id="A"><path fill="#fff" d="M0 0h1921v22H0z"/></clipPath><path id="B" d="M365 0h1v12h-1z"/><path id="C" d="M302 0h1v8h-1z"/><path id="D" d="M330 0h1v11h-1z"/></defs></svg>